<?xml version="1.0" encoding="UTF-8"?>
<svg width="24px" height="24px" viewBox="0 0 24 24" version="1.1" xmlns="http://www.w3.org/2000/svg" xmlns:xlink="http://www.w3.org/1999/xlink">
    <title>9B015463-2783-48B2-8A6D-8825FF5A7851</title>
    <g id="Page-1" stroke="none" stroke-width="1" fill="none" fill-rule="evenodd">
        <g id="00C---Terms" transform="translate(-1076.000000, -66.000000)" fill="#FFFFFF" fill-rule="nonzero">
            <g id="overlay" transform="translate(300.000000, 26.000000)">
                <g id="ic_close" transform="translate(776.000000, 40.000000)">
                    <path d="M14.1134682,11.9987208 L23.5566239,2.56954915 C24.1443811,1.98172923 24.1443811,1.02868485 23.5566239,0.440864936 C22.9688666,-0.146954979 22.0159238,-0.146954979 21.4281666,0.440864936 L12,9.88502729 L2.57183345,0.440864936 C1.98407619,-0.146954964 1.0311334,-0.146954956 0.443376148,0.440864951 C-0.144381104,1.02868486 -0.144381111,1.98172923 0.443376132,2.56954915 L9.88653182,11.9987208 L0.443376132,21.4278924 C0.159612824,21.7093683 0,22.0925253 0,22.4922345 C0,22.8919437 0.159612824,23.2751007 0.443376132,23.5565766 C0.724822042,23.8403702 1.10793816,24 1.50760479,24 C1.90727142,24 2.29038754,23.8403702 2.57183345,23.5565766 L12,14.1124142 L21.4281666,23.5565766 C21.7096125,23.8403702 22.0927286,24 22.4923952,24 C22.8920618,24 23.275178,23.8403702 23.5566239,23.5565766 C23.8403872,23.2751007 24,22.8919437 24,22.4922345 C24,22.0925253 23.8403872,21.7093683 23.5566239,21.4278924 L14.1134682,11.9987208 Z" id="Path"></path>
                </g>
            </g>
        </g>
    </g>
</svg>