<?xml version="1.0" encoding="UTF-8"?>
<svg width="303px" height="288px" viewBox="0 0 303 288" version="1.1" xmlns="http://www.w3.org/2000/svg" xmlns:xlink="http://www.w3.org/1999/xlink">
    <title>8EE3EC75-BC09-4C44-ACD4-6C701216F5E7</title>
    <defs>
        <filter x="-121.5%" y="-140.0%" width="343.1%" height="380.1%" filterUnits="objectBoundingBox" id="filter-1">
            <feOffset dx="0" dy="3" in="SourceAlpha" result="shadowOffsetOuter1"></feOffset>
            <feGaussianBlur stdDeviation="32.5" in="shadowOffsetOuter1" result="shadowBlurOuter1"></feGaussianBlur>
            <feColorMatrix values="0 0 0 0 0.848568974   0 0 0 0 0.392092226   0 0 0 0 1  0 0 0 1 0" type="matrix" in="shadowBlurOuter1" result="shadowMatrixOuter1"></feColorMatrix>
            <feMerge>
                <feMergeNode in="shadowMatrixOuter1"></feMergeNode>
                <feMergeNode in="SourceGraphic"></feMergeNode>
            </feMerge>
        </filter>
        <linearGradient x1="65.9600942%" y1="23.3696859%" x2="26.1298411%" y2="80.9818186%" id="linearGradient-2">
            <stop stop-color="#D2A12D" offset="0%"></stop>
            <stop stop-color="#E5B829" offset="100%"></stop>
        </linearGradient>
        <linearGradient x1="-0.0153160187%" y1="49.9988692%" x2="100.003715%" y2="49.9988692%" id="linearGradient-3">
            <stop stop-color="#1672BA" offset="0%"></stop>
            <stop stop-color="#2D368F" offset="99.96%"></stop>
        </linearGradient>
        <linearGradient x1="-0.0440599348%" y1="49.9474032%" x2="99.9882321%" y2="49.9474032%" id="linearGradient-4">
            <stop stop-color="#EACF8C" offset="0%"></stop>
            <stop stop-color="#E7C981" offset="9.953767%"></stop>
            <stop stop-color="#DBB353" offset="51.93%"></stop>
            <stop stop-color="#D5A636" offset="83.18%"></stop>
            <stop stop-color="#D2A12D" offset="100%"></stop>
        </linearGradient>
        <linearGradient x1="-0.00564784053%" y1="50.1443314%" x2="99.9840532%" y2="50.1443314%" id="linearGradient-5">
            <stop stop-color="#E4B829" offset="27.08%"></stop>
            <stop stop-color="#D7A82C" offset="68.2%"></stop>
            <stop stop-color="#D2A12D" offset="100%"></stop>
        </linearGradient>
        <linearGradient x1="0.0130879346%" y1="49.9202105%" x2="99.906135%" y2="49.9202105%" id="linearGradient-6">
            <stop stop-color="#E5B829" offset="23.38%"></stop>
            <stop stop-color="#D7A82C" offset="45.89%"></stop>
            <stop stop-color="#D2A12D" offset="62.5%"></stop>
        </linearGradient>
        <linearGradient x1="0.0417177914%" y1="49.985654%" x2="99.9347648%" y2="49.985654%" id="linearGradient-7">
            <stop stop-color="#E5B829" offset="23.26%"></stop>
            <stop stop-color="#D7A82C" offset="53.02%"></stop>
            <stop stop-color="#D2A12D" offset="74.99%"></stop>
        </linearGradient>
        <linearGradient x1="0.0544692737%" y1="49.932853%" x2="99.8916201%" y2="49.932853%" id="linearGradient-8">
            <stop stop-color="#E5B829" offset="23.38%"></stop>
            <stop stop-color="#D7A82C" offset="45.89%"></stop>
            <stop stop-color="#D2A12D" offset="62.5%"></stop>
        </linearGradient>
        <linearGradient x1="-0.099137931%" y1="50.0367257%" x2="100.129741%" y2="50.0367257%" id="linearGradient-9">
            <stop stop-color="#E5B829" offset="23.38%"></stop>
            <stop stop-color="#D7A82C" offset="45.89%"></stop>
            <stop stop-color="#D2A12D" offset="62.5%"></stop>
        </linearGradient>
        <linearGradient x1="0.0231759657%" y1="50.0517699%" x2="99.8214592%" y2="50.0517699%" id="linearGradient-10">
            <stop stop-color="#E5B829" offset="23.26%"></stop>
            <stop stop-color="#D7A82C" offset="53.02%"></stop>
            <stop stop-color="#D2A12D" offset="74.99%"></stop>
        </linearGradient>
    </defs>
    <g id="Page-1" stroke="none" stroke-width="1" fill="none" fill-rule="evenodd">
        <g id="00A---Register" transform="translate(-569.000000, 29.000000)" fill-rule="nonzero">
            <g id="SignIn" transform="translate(290.000000, 25.000000)">
                <g transform="translate(0.000000, -25.000000)" id="Group">
                    <g transform="translate(48.000000, 65.000000)">
                        <g id="ic_logo" transform="translate(327.000000, 0.000000)">
                            <g id="PLG-Square-vector-01" filter="url(#filter-1)" transform="translate(1.608696, 3.225806)">
                                <g id="Group">
                                    <path d="M27.2230611,60.1775395 C29.4423324,59.6274706 31.9944943,58.8573741 34.6946077,57.7939075 C32.4753365,54.4568228 31.1807615,50.4596553 31.1807615,46.1324465 C31.1807615,34.3976429 40.7976038,24.863115 52.6337173,24.863115 C61.8067053,24.863115 69.6481305,30.5838318 72.7181224,38.614838 C72.7181224,38.614838 72.7551103,38.5781667 72.7551103,38.5781667 C73.6798066,37.8814127 74.9373937,36.8546174 76.3429322,35.6077945 C78.1183492,34.0676016 80.1526812,32.160696 82.0020739,30.1437766 C76.3059443,19.8758235 65.2835636,12.9082839 52.6337173,12.9082839 C34.1397899,12.9082839 19.1597088,27.7601447 19.1597088,46.0957752 C19.1597088,51.4497793 20.4542837,56.5470846 22.7105428,61.0209785 C23.9681299,60.9109647 25.4846319,60.6175946 27.2230611,60.1775395 Z" id="Path" fill="url(#linearGradient-2)"></path>
                                    <path d="M93.5792725,15.6219572 C86.1817015,11.8814886 78.0443735,13.9717505 78.0443735,13.9717505 C82.5199039,13.6783804 89.9174749,15.5119435 89.362657,20.4258924 C88.8078392,25.3398414 82.6308675,31.3905995 82.6308675,31.3905995 C80.8184626,33.3341764 78.8950941,35.1310681 77.156665,36.5979186 C75.4922115,38.0280978 74.0496852,39.1649069 73.1249888,39.8983321 C73.7537823,41.8785802 74.086673,43.9688421 74.086673,46.1691177 C74.086673,57.9039213 64.4698308,67.4384492 52.6337173,67.4384492 C45.569037,67.4384492 39.3180896,64.0646932 35.4343648,58.8573741 C32.5863,59.9941832 29.8861866,60.8009509 27.5189639,61.3876911 C25.9284862,61.7544037 24.5229477,62.0477738 23.3393363,62.2311301 C23.3393363,62.2311301 15.2389962,63.6979806 9.98672078,62.2311301 C4.73444541,60.7642797 4.06866402,53.3933562 10.7264779,46.7558579 C10.7264779,46.7558579 2.29324699,53.1366574 1.47951419,62.8912128 C0.776744949,71.5823017 12.3169556,73.2325084 29.3313688,70.0054375 C35.3603891,75.7994967 43.5716929,79.356609 52.6337173,79.356609 C71.1276447,79.356609 86.1077258,64.5047483 86.1077258,46.1691177 C86.1077258,44.4455685 85.9597744,42.7586905 85.7008594,41.1084837 C98.1657665,31.0238869 100.643953,19.1790696 93.5792725,15.6219572 Z" id="Path" fill="url(#linearGradient-3)"></path>
                                    <path d="M41.8702516,17.418849 C35.8782191,22.5528256 36.6179762,28.5669124 37.3577333,31.2439145 C41.241458,27.3200895 46.6416848,24.8997863 52.6337173,24.8997863 C59.6244218,24.8997863 65.8383814,28.2368711 69.759094,33.3708476 C69.9070454,32.1240247 69.9070454,30.620503 69.759094,28.8969538 C68.0946406,12.6882563 49.8226403,10.5613232 41.8702516,17.418849 Z" id="Path" fill="url(#linearGradient-4)"></path>
                                    <path d="M51.4501059,49.7262301 L46.7156605,49.7262301 C43.0908508,49.7262301 41.6483244,48.2593796 41.6853123,45.3256787 L41.7223001,41.3285113 C41.759288,38.5414954 43.0168751,37.0379737 46.2718063,37.0379737 L51.5980574,37.0379737 L51.6350452,33.7742315 L54.3351586,33.7742315 L54.2981707,37.0379737 L63.138268,37.0379737 L63.656098,40.8884561 C62.4354988,40.448401 61.3998389,40.301716 60.7710453,40.301716 L54.2611829,40.301716 L54.224195,42.5386629 L58.9956283,42.5386629 C62.3985109,42.5386629 63.8780251,43.9321708 63.8780251,46.4624878 L63.8410373,51.0097242 C63.8040494,53.7600688 62.5464624,55.4836181 59.328519,55.4836181 L54.1132315,55.4836181 L54.0762436,59.0040591 L51.3761302,59.0040591 L51.4131181,55.4836181 L42.277118,55.4836181 L41.6113366,51.266423 C42.5730208,51.816492 43.27579,52.1832046 44.9402435,52.1832046 L51.4131181,52.1832046 L51.4501059,49.7262301 Z M51.5610695,40.3383872 L49.2678225,40.3383872 C48.8239682,40.3383872 48.5650533,40.5584148 48.5650533,40.9617987 L48.5650533,41.988594 C48.5650533,42.3919778 48.7869804,42.6120054 49.2678225,42.6120054 L51.5610695,42.6120054 L51.5610695,40.3383872 Z M54.1132315,52.2565471 L56.2585271,52.2565471 C56.7023813,52.2565471 56.9612963,52.0365195 56.9612963,51.6331356 L56.9612963,50.3129702 C56.9612963,49.9095864 56.7393692,49.6895588 56.2585271,49.6895588 L54.1502193,49.6895588 L54.1132315,52.2565471 Z" id="Shape" fill="url(#linearGradient-5)"></path>
                                    <polygon id="Path" fill="url(#linearGradient-6)" points="8.84009728 23.2495795 11.8731014 29.0069675 18.087061 29.8137353 13.6115305 34.1776154 14.7951419 40.6684286 9.02503656 37.5147001 3.29191907 40.6684286 4.51251828 34.1776154 0 29.7403928 6.2879353 28.8969538"></polygon>
                                    <polygon id="Path" fill="url(#linearGradient-7)" points="98.535645 47.9660095 101.568649 53.6867263 107.782609 54.5301653 103.307078 58.8573741 104.49069 65.3481873 98.7205843 62.1944588 93.0244547 65.3481873 94.208066 58.8940453 89.6955477 54.4568228 95.983483 53.6133837"></polygon>
                                    <polygon id="Path" fill="url(#linearGradient-8)" points="20.0104294 5.9407443 22.2297007 10.1212681 26.7792068 10.7446795 23.4872878 13.898408 24.3749963 18.6656719 20.1583808 16.3553825 15.9787532 18.6656719 16.8294739 13.9350792 13.5375548 10.671337 18.1610367 10.0479255"></polygon>
                                    <polygon id="Path" fill="url(#linearGradient-9)" points="35.656292 0 37.0618304 2.75034458 40.0208588 3.15372846 37.9125511 5.20731908 38.4673689 8.28770501 35.7302677 6.78418331 32.9931664 8.28770501 33.5849721 5.20731908 31.4396765 3.11705719 34.4356928 2.67700206"></polygon>
                                    <polygon id="Path" fill="url(#linearGradient-10)" points="86.9954343 66.7783665 88.4379607 69.5287111 91.396989 69.9320949 89.2516935 71.9856856 89.8065113 75.0660715 87.06941 73.5625498 84.3692966 75.0660715 84.9241145 71.9856856 82.7788189 69.8954237 85.7748351 69.4553685"></polygon>
                                </g>
                                <g id="Group" transform="translate(5.881069, 85.040655)" fill="#FFFFFF">
                                    <path d="M21.637895,1.76022053 L21.6009072,5.2806616 C21.6009072,5.57403169 21.7118707,5.68404547 22.0077736,5.68404547 L22.9324699,5.68404547 C23.1543971,5.68404547 23.2283728,5.64737421 23.2283728,5.2806616 L23.2653606,2.71367332 C23.2653606,2.09026188 23.2283728,2.01691936 23.0804214,1.79689179 L25.7435469,1.79689179 L25.6695712,7.11422466 C25.6695712,8.03100618 25.1887291,8.50773258 24.3010206,8.50773258 L19.4186237,8.50773258 L19.2336845,7.29758096 C19.4556116,7.40759474 19.7145266,7.55427979 20.3063322,7.55427979 L22.673555,7.55427979 C23.0804214,7.55427979 23.1913849,7.44426601 23.1913849,7.18756718 L23.1913849,6.16077187 L23.1543971,6.16077187 C23.0434335,6.45414196 22.9324699,6.63749826 22.3406643,6.63749826 L20.7501865,6.63749826 C19.603563,6.63749826 19.1227209,5.9407443 19.1227209,4.87727773 L19.1597088,2.89702963 C19.1597088,2.23694693 19.0487452,2.01691936 18.9007938,1.76022053 L21.637895,1.76022053 Z M71.4975232,1.42108547e-14 L71.4235475,5.50068917 C71.4235475,6.16077187 71.5345111,6.38079943 71.6824625,6.63749826 L68.6864462,6.63749826 C68.8343977,6.38079943 68.9453612,6.19744313 68.9823491,5.50068917 L69.0193369,1.13680909 C69.0193369,0.476726394 68.9083734,0.256698828 68.760422,1.42108547e-14 L71.4975232,1.42108547e-14 Z M58.7367133,1.76022053 C59.846349,1.76022053 60.1422518,2.20027567 60.1422518,3.22707098 L60.1052639,5.17064782 C60.1052639,6.19744313 59.7723733,6.63749826 58.6627376,6.63749826 L54.8160007,6.63749826 C53.7063651,6.63749826 53.4104622,6.19744313 53.4104622,5.17064782 L53.4474501,3.22707098 C53.4474501,2.20027567 53.7803408,1.76022053 54.8899764,1.76022053 L58.7367133,1.76022053 Z M5.4742025,0 C6.47287458,0 7.17564382,0.256698828 7.13865596,1.61353549 L7.13865596,2.6403308 C7.13865596,3.99716746 6.43588672,4.25386629 5.43721465,4.25386629 L2.77408911,4.25386629 L2.77408911,5.50068917 C2.77408911,6.12410061 2.84806481,6.38079943 2.95902838,6.63749826 L0,6.63749826 C0.110963564,6.38079943 0.221927128,6.12410061 0.221927128,5.50068917 L0.258914983,1.13680909 C0.258914983,0.513397656 0.184939274,0.256698828 0,0 L5.4742025,0 Z M10.5415386,1.42108547e-14 L10.4675629,5.50068917 C10.4675629,6.16077187 10.5785265,6.38079943 10.7264779,6.63749826 L7.73046164,6.63749826 C7.87841306,6.38079943 7.98937662,6.19744313 8.02636448,5.50068917 L8.06335233,1.13680909 C8.06335233,0.476726394 7.95238877,0.256698828 7.80443735,1.42108547e-14 L10.5415386,1.42108547e-14 Z M16.6075468,1.76022053 C17.7911581,1.76022053 18.2720002,2.27361819 18.2350124,3.59378359 L18.1980245,5.72071673 C18.1980245,6.23411439 18.2720002,6.45414196 18.4199517,6.63749826 L15.9417654,6.63749826 L15.8308018,6.08742934 L15.793814,6.08742934 C15.6458626,6.52748448 15.4609233,6.63749826 14.7951419,6.63749826 L13.0197249,6.63749826 C11.9100892,6.63749826 11.6141864,6.19744313 11.6141864,5.17064782 L11.6141864,4.80393521 C11.6141864,3.77713989 11.9470771,3.33708476 13.0567127,3.33708476 L15.3499597,3.33708476 C15.6828504,3.33708476 15.7568261,3.26374224 15.7568261,3.04371467 C15.7568261,2.82368711 15.6828504,2.75034458 15.3499597,2.75034458 L12.9087613,2.75034458 C12.464907,2.75034458 12.2059921,2.82368711 11.9100892,2.97037215 L12.0950285,1.79689179 L16.6075468,1.79689179 L16.6075468,1.76022053 Z M92.0257826,1.76022053 C93.2093939,1.76022053 93.690236,2.27361819 93.6532482,3.59378359 L93.6162603,5.72071673 C93.6162603,6.23411439 93.690236,6.45414196 93.8381875,6.63749826 L91.3600012,6.63749826 L91.2490376,6.08742934 L91.2120498,6.08742934 C91.0640984,6.52748448 90.8791591,6.63749826 90.2133777,6.63749826 L88.4379607,6.63749826 C87.328325,6.63749826 87.0324222,6.19744313 87.0324222,5.17064782 L87.0324222,4.80393521 C87.0324222,3.77713989 87.3653129,3.33708476 88.4749485,3.33708476 L90.7312077,3.33708476 C91.0640984,3.33708476 91.1380741,3.26374224 91.1380741,3.04371467 C91.1380741,2.82368711 91.0640984,2.75034458 90.7312077,2.75034458 L88.2900093,2.75034458 C87.846155,2.75034458 87.58724,2.82368711 87.2913372,2.97037215 L87.4762764,1.79689179 L92.0257826,1.79689179 L92.0257826,1.76022053 Z M67.5028349,0 L67.6877742,1.28349414 C67.3918713,1.17348036 67.1699442,1.10013783 66.6521142,1.10013783 L63.9520008,1.10013783 C63.6191101,1.10013783 63.4341709,1.21015162 63.4341709,1.54019297 L63.397183,5.13397656 C63.397183,5.46401791 63.5451344,5.57403169 63.8780251,5.57403169 L64.7287458,5.57403169 C65.0616365,5.57403169 65.2465758,5.46401791 65.2465758,5.13397656 L65.2465758,3.77713989 L64.2848915,3.77713989 C64.0999523,3.77713989 63.9889887,3.85048242 63.8410373,3.88715368 L63.8410373,2.67700206 L68.181,2.677 L68.1162549,2.77695514 C67.9019384,3.11660446 67.8727134,3.27596599 67.8727134,3.66712611 L67.8357256,5.31733286 C67.8357256,6.12410061 67.8727134,6.27078565 68.0946406,6.63749826 L65.8383814,6.63749826 L65.7644057,6.01408682 L65.7274179,6.01408682 C65.6164543,6.38079943 65.5054907,6.63749826 64.8027215,6.63749826 L62.5464624,6.63749826 C61.4738146,6.63749826 60.845021,6.12410061 60.8820089,4.69392142 L60.9189967,1.94357684 C60.9189967,0.513397656 61.5477903,0 62.6204381,0 L67.5028349,0 Z M29.7382352,0 C29.6272716,0.256698828 29.5163081,0.513397656 29.5163081,1.13680909 L29.4793202,5.53736043 L31.5876279,5.53736043 C31.8835308,5.53736043 32.4013607,5.50068917 32.6972636,5.31733286 L32.4753365,6.63749826 L26.7052311,6.63749826 C26.8161947,6.38079943 26.9271582,6.12410061 26.9271582,5.50068917 L26.9641461,1.13680909 C26.9641461,0.513397656 26.8901704,0.256698828 26.7792068,0 L29.7382352,0 Z M38.4673689,1.76022053 C39.5770046,1.76022053 39.8729074,2.20027567 39.8729074,3.22707098 L39.8359195,5.17064782 C39.8359195,6.19744313 39.5030289,6.63749826 38.3933932,6.63749826 L34.5466563,6.63749826 C33.4370207,6.63749826 33.1411178,6.19744313 33.1411178,5.17064782 L33.1781057,3.22707098 C33.1781057,2.20027567 33.5109964,1.76022053 34.620632,1.76022053 L38.4673689,1.76022053 Z M77.7114828,1.76022053 C78.8211184,1.76022053 79.1170213,2.20027567 79.1170213,3.22707098 L79.0800334,5.17064782 C79.0800334,6.19744313 78.7471427,6.63749826 77.6375071,6.63749826 L73.7907702,6.63749826 C72.6811346,6.63749826 72.3852317,6.19744313 72.3852317,5.17064782 L72.4222196,3.22707098 C72.4222196,2.20027567 72.7551103,1.76022053 73.8647459,1.76022053 L77.7114828,1.76022053 Z M44.1265107,0.696753961 L44.1265107,1.76022053 L46.086867,1.76022053 L46.086867,2.71367332 L44.1265107,2.71367332 L44.0895228,5.2806616 C44.0895228,5.57403169 44.1265107,5.68404547 44.570365,5.68404547 L45.4210856,5.68404547 C45.9019277,5.68404547 46.1978306,5.53736043 46.3087941,5.50068917 L46.1238549,6.63749826 L43.0168751,6.63749826 C42.2401301,6.63749826 41.5743487,6.34412817 41.5743487,5.09730529 L41.6113366,2.71367332 L40.5386888,2.71367332 L40.5386888,1.76022053 L41.6113366,1.76022053 L41.6483244,0.770096483 L44.1265107,0.696753961 Z M97.2410701,1.42108547e-14 L97.1670944,5.50068917 C97.1670944,6.16077187 97.278058,6.38079943 97.4260094,6.63749826 L94.4299931,6.63749826 C94.5779446,6.38079943 94.725896,6.19744313 94.725896,5.50068917 L94.7628838,1.13680909 C94.7628838,0.476726394 94.6519203,0.256698828 94.5039688,1.42108547e-14 L97.2410701,1.42108547e-14 Z M50.5623974,0.696753961 L50.5623974,1.76022053 L52.5227537,1.76022053 L52.5227537,2.71367332 L50.5623974,2.71367332 L50.5254096,5.2806616 C50.5254096,5.57403169 50.5623974,5.68404547 51.0062517,5.68404547 L51.8569723,5.68404547 C52.3378144,5.68404547 52.6337173,5.53736043 52.7446809,5.50068917 L52.5597416,6.63749826 L49.4527618,6.63749826 C48.6760168,6.63749826 48.0102354,6.34412817 48.0102354,5.09730529 L48.0472233,2.71367332 L46.9745755,2.71367332 L46.9745755,1.76022053 L48.0472233,1.76022053 L48.0842112,0.770096483 L50.5623974,0.696753961 Z M82.3719525,0 L82.3349646,2.23694693 L82.3719525,2.23694693 C82.4459282,2.05359062 82.5568918,1.76022053 83.000746,1.76022053 L84.9241145,1.76022053 C86.070738,1.76022053 86.4776044,2.38363197 86.4406165,3.26374224 L86.4036287,5.09730529 C86.4036287,5.97741556 85.9597744,6.600827 84.8501388,6.600827 L82.7788189,6.600827 C82.5199039,6.600827 82.4089403,6.41747069 82.2240011,6.08742934 L82.0760497,6.600827 L79.619,6.6 L79.634699,6.57466917 C79.7321156,6.40162509 79.8197905,6.17707021 79.8197905,5.72071673 L79.8937662,0.916781528 C79.8937662,0.403383872 79.8197905,0.183356306 79.708827,0 L82.3719525,0 Z M37.0248426,2.71367332 L35.9891827,2.71367332 C35.7302677,2.71367332 35.6193041,2.82368711 35.6193041,3.11705719 L35.6193041,5.2806616 C35.6193041,5.57403169 35.6932798,5.68404547 35.9521948,5.68404547 L36.9878547,5.68404547 C37.2837576,5.68404547 37.3577333,5.57403169 37.3577333,5.2806616 L37.3947211,3.11705719 C37.3947211,2.82368711 37.3207454,2.71367332 37.0248426,2.71367332 Z M57.2571991,2.71367332 L56.2215392,2.71367332 C55.9626242,2.71367332 55.8516606,2.82368711 55.8516606,3.11705719 L55.8516606,5.2806616 C55.8516606,5.57403169 55.9256364,5.68404547 56.1845513,5.68404547 L57.2202113,5.68404547 C57.5161141,5.68404547 57.5900898,5.57403169 57.5900898,5.2806616 L57.6270777,3.11705719 C57.6270777,2.82368711 57.553102,2.71367332 57.2571991,2.71367332 Z M76.2319686,2.71367332 L75.1963087,2.71367332 C74.9373937,2.71367332 74.8264301,2.82368711 74.8264301,3.11705719 L74.8264301,5.2806616 C74.8264301,5.57403169 74.9004058,5.68404547 75.1593208,5.68404547 L76.1949808,5.68404547 C76.4908836,5.68404547 76.5648593,5.57403169 76.5648593,5.2806616 L76.6018472,3.11705719 C76.6018472,2.82368711 76.5278714,2.71367332 76.2319686,2.71367332 Z M83.6665274,2.75034458 L82.6678553,2.75034458 C82.4089403,2.75034458 82.3349646,2.86035837 82.3349646,3.11705719 L82.2979768,5.31733286 C82.2979768,5.57403169 82.4089403,5.68404547 82.6308675,5.68404547 L83.6295396,5.68404547 C83.8884545,5.68404547 83.9624302,5.57403169 83.9624302,5.31733286 L83.9994181,3.11705719 C83.9994181,2.86035837 83.8884545,2.75034458 83.6665274,2.75034458 Z M15.7568261,4.25386629 L14.6471905,4.25386629 L14.6471905,4.29053755 C14.2773119,4.29053755 14.1293605,4.36388007 14.1293605,4.69392142 L14.1293605,5.24399034 C14.1293605,5.61070295 14.2773119,5.64737421 14.6471905,5.64737421 L15.2389962,5.64737421 C15.6877821,5.64737421 15.7499217,5.58348473 15.7562124,5.06810954 L15.7568261,4.25386629 Z M91.2120498,4.25386629 L90.1024141,4.25386629 L90.1024141,4.29053755 C89.7325356,4.29053755 89.5845842,4.36388007 89.5845842,4.69392142 L89.5845842,5.24399034 C89.5845842,5.61070295 89.7325356,5.64737421 90.1024141,5.64737421 L90.6942198,5.64737421 C91.1750619,5.64737421 91.2120498,5.57403169 91.2120498,4.95062025 L91.2120498,4.25386629 Z M4.17962758,1.10013783 L2.84806481,1.10013783 L2.81107696,3.19039972 L4.14263973,3.19039972 C4.51251828,3.19039972 4.58649399,3.08038593 4.62348184,2.60365954 L4.62348184,1.68687801 C4.62348184,1.21015162 4.54950613,1.10013783 4.17962758,1.10013783 Z" id="Combined-Shape"></path>
                                </g>
                            </g>
                        </g>
                    </g>
                </g>
            </g>
        </g>
    </g>
</svg>